<?xml version="1.0" encoding="utf-8"?>
<!-- Generator: Adobe Illustrator 21.0.0, SVG Export Plug-In . SVG Version: 6.00 Build 0)  -->
<svg version="1.1" id="Layer_1" xmlns="http://www.w3.org/2000/svg" xmlns:xlink="http://www.w3.org/1999/xlink" x="0px" y="0px"
	 viewBox="0 0 216.2 100" style="enable-background:new 0 0 216.2 100;" xml:space="preserve">
<style type="text/css">
	.st0{fill:#FFFFFF;}
</style>
<g id="PCHC_Logo">
	<g id="logo-white">
		<path class="st0" d="M166,37.4c-2.8,0.8-5.3,2.1-7.5,3.9c-2.2,1.8-3.9,4.1-5.2,7s-1.9,6.4-1.9,10.5c0,2.8,0.5,5.4,1.5,7.8
			s2.4,4.5,4.3,6.3c1.9,1.8,4.2,3.1,6.9,4.1s5.8,1.5,9.2,1.5c4.9,0,8.9-0.8,12.1-2.4c0.1-0.8,0.2-1.7,0.5-2.5
			c0.2-0.9,0.5-1.7,0.8-2.5l-0.8-0.5c-0.6,0.7-1.4,1.3-2.2,1.8c-0.9,0.6-1.8,1-2.7,1.4c-1,0.4-1.9,0.7-2.9,0.9c-1,0.2-2,0.3-2.9,0.3
			c-1.7,0-3.4-0.3-5.1-0.9c-1.7-0.6-3.2-1.6-4.5-3s-2.4-3.1-3.2-5.3c-0.8-2.2-1.2-4.8-1.2-7.8c0-3.2,0.4-5.9,1.2-8.2
			s1.9-4.1,3.2-5.6s2.8-2.6,4.4-3.3c1.6-0.7,3.2-1.1,4.8-1.1c2.1,0,4,0.4,5.6,1.2s3.1,2.2,4.6,4.1h0.8c0.1-1,0.2-2,0.4-3.1
			c0.2-1,0.5-2,0.9-3c-0.7-0.4-1.5-0.8-2.5-1.1c-1-0.4-2-0.7-3.1-0.9c-1.1-0.3-2.2-0.5-3.3-0.6c-1.1-0.2-2.2-0.2-3.3-0.2
			C171.9,36.1,168.9,36.5,166,37.4"/>
		<path class="st0" d="M140.9,37.1c-0.8,0.1-1.7,0.1-2.7,0.1s-1.9,0-2.7-0.1s-1.5-0.1-2.2-0.2c0.2,2.6,0.3,5.1,0.4,7.6
			c0.1,2.5,0.1,5.4,0.1,8.7c-1.1,0-2.4,0.1-3.7,0.1s-3.1,0-5.2,0s-3.9,0-5.4,0c-1.4,0-2.7,0-3.7-0.1c0-3.3,0-6.2,0.1-8.7
			s0.2-5.1,0.4-7.6c-0.7,0.1-1.4,0.1-2.2,0.2c-0.8,0.1-1.7,0.1-2.7,0.1s-1.9,0-2.7-0.1c-0.8-0.1-1.5-0.1-2.2-0.2
			c0.2,2.6,0.3,5.1,0.4,7.7c0.1,2.6,0.1,5.5,0.1,8.8v8.1c0,3.3,0,6.2-0.1,8.7s-0.2,5.1-0.4,7.5c0.7-0.1,1.4-0.1,2.2-0.1h2.7h2.7
			c0.8,0,1.5,0,2.2,0.1c-0.2-2.5-0.3-5-0.4-7.5s-0.1-5.5-0.1-8.7V58c1.5-0.1,3-0.1,4.5-0.2c1.5,0,3-0.1,4.5-0.1s3,0,4.5,0.1
			c1.5,0.1,3,0.1,4.5,0.1v3.4c0,3.3,0,6.2-0.1,8.7s-0.2,5.1-0.4,7.5c0.7-0.1,1.4-0.1,2.2-0.1h2.7h2.7c0.8,0,1.5,0,2.2,0.1
			c-0.2-2.5-0.3-5-0.4-7.5c-0.1-2.5-0.1-5.5-0.1-8.7v-8.1c0-3.3,0-6.2,0.1-8.8s0.2-5.1,0.4-7.7C142.4,37,141.7,37,140.9,37.1"/>
		<path class="st0" d="M77.3,37.4c-2.8,0.8-5.3,2.1-7.5,3.9c-2.2,1.8-3.9,4.1-5.2,7c-1.3,2.9-1.9,6.4-1.9,10.5
			c0,2.8,0.5,5.4,1.5,7.8s2.4,4.5,4.3,6.3s4.2,3.1,6.9,4.1c2.7,1,5.8,1.5,9.2,1.5c4.9,0,8.9-0.8,12.1-2.4c0.1-0.8,0.2-1.7,0.5-2.5
			c0.2-0.9,0.5-1.7,0.8-2.5l-0.8-0.5c-0.6,0.7-1.4,1.3-2.2,1.8c-0.9,0.6-1.7,1-2.7,1.4s-1.9,0.7-2.9,0.9c-1,0.2-2,0.3-2.9,0.3
			c-1.7,0-3.4-0.3-5.1-0.9s-3.2-1.6-4.5-3s-2.4-3.1-3.2-5.3c-0.8-2.2-1.2-4.8-1.2-7.8c0-3.2,0.4-5.9,1.2-8.2
			c0.8-2.3,1.9-4.1,3.2-5.6c1.3-1.5,2.8-2.6,4.4-3.3s3.2-1.1,4.8-1.1c2.1,0,4,0.4,5.6,1.2s3.1,2.2,4.6,4.1H97c0.1-1,0.2-2,0.4-3.1
			c0.2-1,0.5-2,0.9-3c-0.7-0.4-1.5-0.8-2.5-1.1c-1-0.4-2-0.7-3.1-0.9c-1.1-0.3-2.2-0.5-3.3-0.6c-1.1-0.2-2.2-0.2-3.3-0.2
			C83.2,36.1,80.2,36.5,77.3,37.4"/>
		<path class="st0" d="M39.8,48.7c0-2.7,0-5.5,0.1-8.4c0.2,0,0.3-0.1,0.5-0.1H41h1.4c0.8,0,1.6,0.1,2.4,0.4c0.8,0.3,1.4,0.7,2,1.3
			s1,1.4,1.4,2.5c0.3,1,0.5,2.3,0.5,3.8c0,1.9-0.3,3.4-0.8,4.6c-0.6,1.1-1.3,2-2.1,2.6c-0.9,0.6-1.8,1-2.9,1.2
			c-1,0.2-2.1,0.3-3.1,0.3C39.7,54.2,39.7,51.5,39.8,48.7 M39.6,37c-1.5,0.1-2.9,0.1-4.3,0.1c-1,0-1.9,0-2.7-0.1s-1.5-0.1-2.2-0.2
			c0.2,2.6,0.3,5.1,0.4,7.7c0.1,2.6,0.1,5.5,0.1,8.8v8.1c0,3.3,0,6.2-0.1,8.7s-0.2,5.1-0.4,7.5c0.7-0.1,1.4-0.1,2.2-0.1h2.7H38
			c0.8,0,1.5,0,2.2,0.1c-0.2-2.9-0.3-5.8-0.4-8.8c0-2.8-0.1-5.8-0.1-8.8h3c2.2,0,4.3-0.2,6.1-0.7c1.9-0.5,3.5-1.2,4.8-2.2
			c1.4-1,2.4-2.3,3.2-3.9c0.7-1.6,1.1-3.6,1.1-5.8c0-1.8-0.3-3.3-0.9-4.6c-0.6-1.3-1.5-2.4-2.8-3.4c-0.9-0.8-2.2-1.4-3.7-1.8
			c-1.6-0.4-3.8-0.6-6.6-0.6C42.6,36.9,41.1,36.9,39.6,37"/>
		<path class="st0" d="M108.1,0C48.5,0,0,25.8,0,57.5c0,15.9,13.1,31.3,35.9,42.4l0,0c-19.3-10.1-25.2-26.6-25.2-41
			C10.8,30.4,52.6,9,108.1,9s97.4,21.5,97.4,49.9c0,14.4-6.1,30.9-25.5,41l0.1,0.1c23-11.1,36.1-26.6,36.1-42.5
			C216.3,25.8,167.7,0,108.1,0z"/>
	</g>
</g>
</svg>
