<?xml version="1.0" encoding="utf-8"?>
<!-- Generator: Adobe Illustrator 21.0.0, SVG Export Plug-In . SVG Version: 6.00 Build 0)  -->
<svg version="1.1" xmlns="http://www.w3.org/2000/svg" xmlns:xlink="http://www.w3.org/1999/xlink" x="0px" y="0px"
	 viewBox="0 0 637.2 100" style="enable-background:new 0 0 637.2 100;" xml:space="preserve">
<style type="text/css">
	.st0{fill:#FFFFFF;}
</style>
<g id="Layer_2">
</g>
<g id="PCHC_Seaport_Logo">
	<g id="PCHC_Seaport">
		<g id="logo-fullcolor">
			<path class="st0" d="M166,37.4c-2.8,0.8-5.3,2.1-7.5,3.9c-2.2,1.8-3.9,4.1-5.2,7s-1.9,6.4-1.9,10.5c0,2.8,0.5,5.4,1.5,7.8
				s2.4,4.5,4.3,6.3c1.9,1.8,4.2,3.1,6.9,4.1s5.8,1.5,9.2,1.5c4.9,0,8.9-0.8,12.1-2.4c0.1-0.8,0.2-1.7,0.5-2.5
				c0.2-0.9,0.5-1.7,0.8-2.5l-0.8-0.5c-0.6,0.7-1.4,1.3-2.2,1.8c-0.9,0.6-1.8,1-2.7,1.4c-1,0.4-1.9,0.7-2.9,0.9
				c-1,0.2-2,0.3-2.9,0.3c-1.7,0-3.4-0.3-5.1-0.9c-1.7-0.6-3.2-1.6-4.5-3s-2.4-3.1-3.2-5.3c-0.8-2.2-1.2-4.8-1.2-7.8
				c0-3.2,0.4-5.9,1.2-8.2s1.9-4.1,3.2-5.6s2.8-2.6,4.4-3.3c1.6-0.7,3.2-1.1,4.8-1.1c2.1,0,4,0.4,5.6,1.2s3.1,2.2,4.6,4.1h0.8
				c0.1-1,0.2-2,0.4-3.1c0.2-1,0.5-2,0.9-3c-0.7-0.4-1.5-0.8-2.5-1.1c-1-0.4-2-0.7-3.1-0.9c-1.1-0.3-2.2-0.5-3.3-0.6
				c-1.1-0.2-2.2-0.2-3.3-0.2C171.9,36.1,168.9,36.5,166,37.4"/>
			<path class="st0" d="M140.9,37.1c-0.8,0.1-1.7,0.1-2.7,0.1s-1.9,0-2.7-0.1s-1.5-0.1-2.2-0.2c0.2,2.6,0.3,5.1,0.4,7.6
				c0.1,2.5,0.1,5.4,0.1,8.7c-1.1,0-2.4,0.1-3.7,0.1s-3.1,0-5.2,0s-3.9,0-5.4,0c-1.4,0-2.7,0-3.7-0.1c0-3.3,0-6.2,0.1-8.7
				s0.2-5.1,0.4-7.6c-0.7,0.1-1.4,0.1-2.2,0.2c-0.8,0.1-1.7,0.1-2.7,0.1s-1.9,0-2.7-0.1c-0.8-0.1-1.5-0.1-2.2-0.2
				c0.2,2.6,0.3,5.1,0.4,7.7c0.1,2.6,0.1,5.5,0.1,8.8v8.1c0,3.3,0,6.2-0.1,8.7s-0.2,5.1-0.4,7.5c0.7-0.1,1.4-0.1,2.2-0.1h2.7h2.7
				c0.8,0,1.5,0,2.2,0.1c-0.2-2.5-0.3-5-0.4-7.5s-0.1-5.5-0.1-8.7V58c1.5-0.1,3-0.1,4.5-0.2c1.5,0,3-0.1,4.5-0.1s3,0,4.5,0.1
				c1.5,0.1,3,0.1,4.5,0.1v3.4c0,3.3,0,6.2-0.1,8.7s-0.2,5.1-0.4,7.5c0.7-0.1,1.4-0.1,2.2-0.1h2.7h2.7c0.8,0,1.5,0,2.2,0.1
				c-0.2-2.5-0.3-5-0.4-7.5c-0.1-2.5-0.1-5.5-0.1-8.7v-8.1c0-3.3,0-6.2,0.1-8.8s0.2-5.1,0.4-7.7C142.4,37,141.7,37,140.9,37.1"/>
			<path class="st0" d="M77.3,37.4c-2.8,0.8-5.3,2.1-7.5,3.9c-2.2,1.8-3.9,4.1-5.2,7c-1.3,2.9-1.9,6.4-1.9,10.5
				c0,2.8,0.5,5.4,1.5,7.8s2.4,4.5,4.3,6.3s4.2,3.1,6.9,4.1c2.7,1,5.8,1.5,9.2,1.5c4.9,0,8.9-0.8,12.1-2.4c0.1-0.8,0.2-1.7,0.5-2.5
				c0.2-0.9,0.5-1.7,0.8-2.5l-0.8-0.5c-0.6,0.7-1.4,1.3-2.2,1.8c-0.9,0.6-1.7,1-2.7,1.4s-1.9,0.7-2.9,0.9c-1,0.2-2,0.3-2.9,0.3
				c-1.7,0-3.4-0.3-5.1-0.9s-3.2-1.6-4.5-3s-2.4-3.1-3.2-5.3c-0.8-2.2-1.2-4.8-1.2-7.8c0-3.2,0.4-5.9,1.2-8.2
				c0.8-2.3,1.9-4.1,3.2-5.6c1.3-1.5,2.8-2.6,4.4-3.3s3.2-1.1,4.8-1.1c2.1,0,4,0.4,5.6,1.2s3.1,2.2,4.6,4.1H97c0.1-1,0.2-2,0.4-3.1
				c0.2-1,0.5-2,0.9-3c-0.7-0.4-1.5-0.8-2.5-1.1c-1-0.4-2-0.7-3.1-0.9c-1.1-0.3-2.2-0.5-3.3-0.6c-1.1-0.2-2.2-0.2-3.3-0.2
				C83.2,36.1,80.2,36.5,77.3,37.4"/>
			<path class="st0" d="M39.8,48.7c0-2.7,0-5.5,0.1-8.4c0.2,0,0.3-0.1,0.5-0.1H41h1.4c0.8,0,1.6,0.1,2.4,0.4c0.8,0.3,1.4,0.7,2,1.3
				s1,1.4,1.4,2.5c0.3,1,0.5,2.3,0.5,3.8c0,1.9-0.3,3.4-0.8,4.6c-0.6,1.1-1.3,2-2.1,2.6c-0.9,0.6-1.8,1-2.9,1.2
				c-1,0.2-2.1,0.3-3.1,0.3C39.7,54.2,39.7,51.5,39.8,48.7 M39.6,37c-1.5,0.1-2.9,0.1-4.3,0.1c-1,0-1.9,0-2.7-0.1s-1.5-0.1-2.2-0.2
				c0.2,2.6,0.3,5.1,0.4,7.7c0.1,2.6,0.1,5.5,0.1,8.8v8.1c0,3.3,0,6.2-0.1,8.7s-0.2,5.1-0.4,7.5c0.7-0.1,1.4-0.1,2.2-0.1h2.7H38
				c0.8,0,1.5,0,2.2,0.1c-0.2-2.9-0.3-5.8-0.4-8.8c0-2.8-0.1-5.8-0.1-8.8h3c2.2,0,4.3-0.2,6.1-0.7c1.9-0.5,3.5-1.2,4.8-2.2
				c1.4-1,2.4-2.3,3.2-3.9c0.7-1.6,1.1-3.6,1.1-5.8c0-1.8-0.3-3.3-0.9-4.6c-0.6-1.3-1.5-2.4-2.8-3.4c-0.9-0.8-2.2-1.4-3.7-1.8
				c-1.6-0.4-3.8-0.6-6.6-0.6C42.6,36.9,41.1,36.9,39.6,37"/>
			<path class="st0" d="M108.1,0C48.5,0,0,25.8,0,57.5c0,15.9,13.1,31.3,35.9,42.4l0,0c-19.3-10.1-25.2-26.6-25.2-41
				C10.8,30.4,52.6,9,108.1,9s97.4,21.5,97.4,49.9c0,14.4-6.1,30.9-25.5,41l0.1,0.1c23-11.1,36.1-26.6,36.1-42.5
				C216.3,25.8,167.7,0,108.1,0z"/>
		</g>
		<path class="st0" d="M234.6,95.8c-0.4,0-0.8-0.3-0.8-0.8V5c0-0.4,0.3-0.8,0.8-0.8s0.8,0.3,0.8,0.8v90
			C235.4,95.4,235,95.8,234.6,95.8z"/>
		<g id="Seaport_Community_Health_Center">
			<path class="st0" d="M274.8,16.6c-0.8-1-2-1.7-3.4-2.3s-3-0.9-4.8-0.9c-2.6,0-4.5,0.5-5.8,1.5c-1.2,1-1.8,2.3-1.8,4.1
				c0,0.9,0.2,1.6,0.5,2.2c0.3,0.6,0.8,1.1,1.5,1.5c0.7,0.4,1.5,0.8,2.6,1.1c1.1,0.3,2.3,0.6,3.7,0.9c1.6,0.3,3,0.7,4.3,1.1
				c1.3,0.4,2.4,0.9,3.3,1.6c0.9,0.6,1.6,1.4,2.1,2.3c0.5,0.9,0.7,2,0.7,3.4c0,1.4-0.3,2.6-0.8,3.6c-0.5,1-1.3,1.8-2.2,2.5
				c-1,0.7-2.1,1.2-3.4,1.5c-1.3,0.3-2.8,0.5-4.3,0.5c-4.6,0-8.6-1.4-12-4.3l1.5-2.4c0.5,0.6,1.2,1.1,1.9,1.6s1.6,0.9,2.5,1.3
				c0.9,0.4,1.9,0.7,2.9,0.9c1,0.2,2.1,0.3,3.3,0.3c2.4,0,4.2-0.4,5.6-1.3c1.3-0.9,2-2.1,2-3.9c0-0.9-0.2-1.7-0.6-2.3
				s-0.9-1.2-1.7-1.6c-0.8-0.5-1.7-0.9-2.8-1.2c-1.1-0.3-2.4-0.7-3.9-1c-1.6-0.4-2.9-0.7-4.1-1.1c-1.2-0.4-2.2-0.9-3-1.5
				c-0.8-0.6-1.4-1.3-1.8-2.1c-0.4-0.8-0.6-1.8-0.6-3c0-1.4,0.3-2.6,0.8-3.7c0.5-1.1,1.3-2,2.2-2.7c1-0.7,2.1-1.3,3.4-1.6
				c1.3-0.4,2.7-0.6,4.3-0.6c2,0,3.8,0.3,5.3,0.9c1.6,0.6,3,1.4,4.2,2.5L274.8,16.6z"/>
			<path class="st0" d="M291.5,41.3c-1.6,0-3.1-0.3-4.4-0.9c-1.3-0.6-2.5-1.4-3.5-2.5c-1-1.1-1.7-2.3-2.3-3.6
				c-0.5-1.4-0.8-2.8-0.8-4.4c0-1.5,0.3-3,0.8-4.3c0.5-1.4,1.3-2.5,2.3-3.6c1-1,2.1-1.8,3.5-2.4c1.3-0.6,2.8-0.9,4.4-0.9
				c1.6,0,3.1,0.3,4.4,0.9c1.3,0.6,2.5,1.4,3.4,2.5c1,1,1.7,2.2,2.2,3.6c0.5,1.3,0.8,2.8,0.8,4.3c0,0.2,0,0.4,0,0.7
				c0,0.2,0,0.4,0,0.5h-18.7c0.1,1.2,0.4,2.3,0.8,3.3c0.5,1,1.1,1.9,1.8,2.6c0.7,0.7,1.6,1.3,2.5,1.7c0.9,0.4,1.9,0.6,3,0.6
				c0.7,0,1.4-0.1,2.1-0.3c0.7-0.2,1.3-0.5,1.9-0.8s1.1-0.7,1.6-1.2c0.5-0.5,0.8-1,1.1-1.6l2.5,0.7c-0.3,0.8-0.8,1.5-1.4,2.2
				c-0.6,0.7-1.3,1.2-2.1,1.7c-0.8,0.5-1.7,0.9-2.7,1.1C293.6,41.1,292.5,41.3,291.5,41.3z M299.5,28.8c-0.1-1.2-0.4-2.2-0.8-3.2
				c-0.5-1-1-1.8-1.8-2.5c-0.7-0.7-1.5-1.2-2.5-1.6c-0.9-0.4-1.9-0.6-3-0.6s-2.1,0.2-3,0.6c-1,0.4-1.8,0.9-2.5,1.6
				c-0.7,0.7-1.3,1.5-1.7,2.5c-0.4,1-0.7,2-0.8,3.2H299.5z"/>
			<path class="st0" d="M311.7,41.3c-1,0-2-0.2-2.9-0.5c-0.9-0.3-1.7-0.8-2.3-1.4c-0.7-0.6-1.2-1.3-1.5-2.2
				c-0.4-0.8-0.5-1.7-0.5-2.7c0-1,0.2-1.8,0.7-2.6s1.1-1.5,1.9-2.1c0.8-0.6,1.8-1,2.9-1.4c1.1-0.3,2.4-0.5,3.7-0.5
				c1.1,0,2.3,0.1,3.4,0.3c1.1,0.2,2.2,0.5,3.1,0.8v-2c0-1.9-0.5-3.5-1.6-4.6s-2.6-1.7-4.5-1.7c-1.1,0-2.3,0.2-3.4,0.7
				c-1.2,0.4-2.4,1.1-3.6,1.9l-1-1.9c2.8-1.9,5.6-2.9,8.2-2.9c2.7,0,4.9,0.8,6.5,2.3c1.6,1.5,2.4,3.7,2.4,6.4v9.9
				c0,0.8,0.3,1.2,1,1.2v2.5c-0.5,0.1-0.8,0.1-1.1,0.1c-0.7,0-1.3-0.2-1.7-0.5c-0.4-0.4-0.6-0.9-0.7-1.5l-0.1-1.7
				c-1,1.3-2.3,2.3-3.8,3C315.1,40.9,313.5,41.3,311.7,41.3z M312.4,39.1c1.5,0,2.8-0.3,4.1-0.8c1.2-0.6,2.2-1.3,2.8-2.2
				c0.3-0.3,0.4-0.5,0.6-0.8s0.2-0.6,0.2-0.8v-3.6c-1-0.4-1.9-0.6-3-0.8c-1-0.2-2.1-0.3-3.1-0.3c-2,0-3.7,0.4-4.9,1.3
				c-1.3,0.8-1.9,1.9-1.9,3.3c0,0.7,0.1,1.3,0.4,1.9c0.3,0.6,0.6,1.1,1.1,1.5c0.5,0.4,1,0.8,1.7,1S311.7,39.1,312.4,39.1z"/>
			<path class="st0" d="M339.8,41.3c-1.8,0-3.5-0.5-4.9-1.4c-1.4-0.9-2.6-2.1-3.4-3.5v13.5h-2.9V19h2.6v4.2c0.9-1.4,2.1-2.5,3.5-3.3
				c1.4-0.9,3-1.3,4.7-1.3c1.5,0,2.9,0.3,4.2,0.9c1.3,0.6,2.4,1.5,3.3,2.5c0.9,1,1.6,2.3,2.2,3.6c0.5,1.4,0.8,2.8,0.8,4.2
				c0,1.5-0.2,3-0.7,4.4c-0.5,1.4-1.2,2.6-2,3.6c-0.9,1-1.9,1.9-3.2,2.5C342.6,41,341.2,41.3,339.8,41.3z M339,38.8
				c1.2,0,2.2-0.3,3.2-0.8s1.8-1.2,2.5-2c0.7-0.8,1.2-1.8,1.6-2.8c0.4-1,0.5-2.1,0.5-3.3c0-1.2-0.2-2.3-0.6-3.4
				c-0.4-1.1-1-2-1.7-2.8c-0.7-0.8-1.6-1.5-2.6-1.9c-1-0.5-2.1-0.7-3.2-0.7c-0.7,0-1.5,0.1-2.3,0.4c-0.8,0.3-1.5,0.7-2.2,1.2
				c-0.7,0.5-1.3,1.1-1.8,1.7c-0.5,0.7-0.8,1.4-0.9,2.1v6.7c0.3,0.8,0.8,1.5,1.3,2.2c0.5,0.7,1.1,1.3,1.8,1.7
				c0.7,0.5,1.4,0.9,2.1,1.2C337.4,38.6,338.2,38.8,339,38.8z"/>
			<path class="st0" d="M363.5,41.3c-1.6,0-3.1-0.3-4.4-0.9c-1.3-0.6-2.5-1.4-3.4-2.5c-1-1-1.7-2.2-2.2-3.6
				c-0.5-1.4-0.8-2.8-0.8-4.3c0-1.5,0.3-3,0.8-4.4c0.5-1.4,1.3-2.6,2.3-3.6c1-1,2.1-1.9,3.4-2.5c1.3-0.6,2.8-0.9,4.3-0.9
				s3,0.3,4.3,0.9c1.3,0.6,2.5,1.4,3.4,2.5c1,1,1.7,2.2,2.3,3.6c0.5,1.4,0.8,2.8,0.8,4.4c0,1.5-0.3,3-0.8,4.3
				c-0.5,1.4-1.3,2.6-2.2,3.6c-1,1-2.1,1.9-3.4,2.5C366.6,41,365.1,41.3,363.5,41.3z M355.6,30c0,1.2,0.2,2.4,0.6,3.4
				c0.4,1.1,1,2,1.7,2.8c0.7,0.8,1.6,1.4,2.5,1.9c1,0.4,2,0.7,3.1,0.7c1.1,0,2.1-0.2,3.1-0.7c1-0.5,1.8-1.1,2.5-1.9
				c0.7-0.8,1.3-1.7,1.7-2.8c0.4-1.1,0.6-2.2,0.6-3.4c0-1.2-0.2-2.3-0.6-3.4c-0.4-1.1-1-2-1.7-2.8c-0.7-0.8-1.6-1.4-2.5-1.9
				c-1-0.5-2-0.7-3.1-0.7c-1.1,0-2.1,0.2-3.1,0.7c-1,0.5-1.8,1.1-2.5,1.9c-0.7,0.8-1.3,1.8-1.7,2.8C355.8,27.6,355.6,28.8,355.6,30z
				"/>
			<path class="st0" d="M389.6,21.5c-1.9,0.1-3.6,0.6-5,1.6c-1.4,1-2.4,2.4-3,4.2v13.6h-2.9V19h2.7v5.2c0.8-1.7,1.9-3,3.3-3.9
				c1.4-1,2.8-1.4,4.4-1.4c0.2,0,0.4,0,0.5,0V21.5z"/>
			<path class="st0" d="M404.3,39.8c-0.2,0.1-0.4,0.2-0.7,0.3c-0.3,0.1-0.7,0.3-1.1,0.4c-0.4,0.1-0.9,0.3-1.4,0.4
				c-0.5,0.1-1.1,0.2-1.7,0.2c-0.6,0-1.2-0.1-1.8-0.3s-1-0.4-1.5-0.8s-0.8-0.8-1-1.3c-0.3-0.5-0.4-1.1-0.4-1.8V21.2h-3V19h3v-7.4
				h2.9V19h5v2.3h-5v14.9c0.1,0.8,0.3,1.4,0.9,1.8c0.5,0.4,1.1,0.6,1.8,0.6c0.8,0,1.5-0.1,2.1-0.4c0.6-0.3,1-0.5,1.2-0.6L404.3,39.8
				z"/>
			<path class="st0" d="M417.2,25.7c0-1.8,0.3-3.6,0.9-5.4c0.6-1.8,1.5-3.4,2.8-4.8c1.2-1.4,2.7-2.5,4.5-3.4s3.8-1.3,6-1.3
				c2.7,0,4.9,0.6,6.8,1.8c1.9,1.2,3.3,2.8,4.2,4.7l-2.3,1.4c-0.5-1-1.1-1.8-1.7-2.5c-0.7-0.7-1.4-1.2-2.2-1.6
				c-0.8-0.4-1.6-0.7-2.4-0.9c-0.8-0.2-1.7-0.3-2.5-0.3c-1.8,0-3.4,0.4-4.7,1.1c-1.4,0.7-2.5,1.7-3.5,2.9c-0.9,1.2-1.6,2.5-2.1,4
				c-0.5,1.5-0.7,3-0.7,4.5c0,1.7,0.3,3.2,0.9,4.7c0.6,1.5,1.4,2.8,2.4,4c1,1.2,2.2,2.1,3.5,2.8c1.4,0.7,2.8,1,4.4,1
				c0.8,0,1.7-0.1,2.6-0.3s1.7-0.5,2.6-1c0.8-0.5,1.6-1,2.3-1.7c0.7-0.7,1.3-1.5,1.8-2.5l2.4,1.3c-0.5,1.1-1.1,2.1-2,3
				c-0.9,0.9-1.8,1.6-2.9,2.2c-1.1,0.6-2.2,1-3.4,1.3c-1.2,0.3-2.4,0.5-3.5,0.5c-2,0-3.9-0.4-5.6-1.3c-1.7-0.9-3.2-2.1-4.4-3.5
				c-1.2-1.4-2.2-3.1-2.9-4.9C417.6,29.5,417.2,27.6,417.2,25.7z"/>
			<path class="st0" d="M456.4,41.3c-1.6,0-3.1-0.3-4.4-0.9c-1.3-0.6-2.5-1.4-3.4-2.5c-1-1-1.7-2.2-2.2-3.6
				c-0.5-1.4-0.8-2.8-0.8-4.3c0-1.5,0.3-3,0.8-4.4c0.5-1.4,1.3-2.6,2.3-3.6c1-1,2.1-1.9,3.4-2.5c1.3-0.6,2.8-0.9,4.3-0.9
				s3,0.3,4.3,0.9c1.3,0.6,2.5,1.4,3.4,2.5c1,1,1.7,2.2,2.3,3.6c0.5,1.4,0.8,2.8,0.8,4.4c0,1.5-0.3,3-0.8,4.3
				c-0.5,1.4-1.3,2.6-2.2,3.6c-1,1-2.1,1.9-3.4,2.5C459.4,41,457.9,41.3,456.4,41.3z M448.4,30c0,1.2,0.2,2.4,0.6,3.4
				c0.4,1.1,1,2,1.7,2.8c0.7,0.8,1.6,1.4,2.5,1.9c1,0.4,2,0.7,3.1,0.7c1.1,0,2.1-0.2,3.1-0.7c1-0.5,1.8-1.1,2.5-1.9
				c0.7-0.8,1.3-1.7,1.7-2.8c0.4-1.1,0.6-2.2,0.6-3.4c0-1.2-0.2-2.3-0.6-3.4c-0.4-1.1-1-2-1.7-2.8c-0.7-0.8-1.6-1.4-2.5-1.9
				c-1-0.5-2-0.7-3.1-0.7c-1.1,0-2.1,0.2-3.1,0.7c-1,0.5-1.8,1.1-2.5,1.9c-0.7,0.8-1.3,1.8-1.7,2.8C448.6,27.6,448.4,28.8,448.4,30z
				"/>
			<path class="st0" d="M504.1,40.9h-2.9V28.6c0-2.5-0.4-4.4-1.2-5.6c-0.8-1.2-2-1.8-3.6-1.8c-0.8,0-1.6,0.2-2.4,0.5
				s-1.4,0.7-2.1,1.3c-0.6,0.6-1.2,1.2-1.7,2c-0.5,0.8-0.8,1.6-1.1,2.5v13.4h-2.9V28.6c0-2.6-0.4-4.5-1.2-5.7
				c-0.8-1.2-2-1.8-3.6-1.8c-1.7,0-3.1,0.6-4.4,1.7c-1.3,1.1-2.2,2.7-2.8,4.5v13.4h-2.9V19h2.6v5c0.9-1.7,2.1-3,3.5-3.9
				c1.5-0.9,3.1-1.4,4.8-1.4c1.8,0,3.3,0.5,4.4,1.6c1.1,1,1.8,2.4,2,4.1c2-3.8,4.9-5.6,8.4-5.6c1.2,0,2.3,0.2,3.1,0.7
				c0.9,0.4,1.5,1.1,2.1,1.9c0.5,0.8,0.9,1.8,1.1,3c0.2,1.2,0.4,2.5,0.4,3.9V40.9z"/>
			<path class="st0" d="M542.1,40.9h-2.9V28.6c0-2.5-0.4-4.4-1.2-5.6c-0.8-1.2-2-1.8-3.6-1.8c-0.8,0-1.6,0.2-2.4,0.5
				s-1.4,0.7-2.1,1.3c-0.6,0.6-1.2,1.2-1.7,2c-0.5,0.8-0.8,1.6-1.1,2.5v13.4h-2.9V28.6c0-2.6-0.4-4.5-1.2-5.7
				c-0.8-1.2-2-1.8-3.6-1.8c-1.7,0-3.1,0.6-4.4,1.7c-1.3,1.1-2.2,2.7-2.8,4.5v13.4h-2.9V19h2.6v5c0.9-1.7,2.1-3,3.5-3.9
				c1.5-0.9,3.1-1.4,4.8-1.4c1.8,0,3.3,0.5,4.4,1.6c1.1,1,1.8,2.4,2,4.1c2-3.8,4.9-5.6,8.4-5.6c1.2,0,2.3,0.2,3.1,0.7
				c0.9,0.4,1.5,1.1,2.1,1.9c0.5,0.8,0.9,1.8,1.1,3c0.2,1.2,0.4,2.5,0.4,3.9V40.9z"/>
			<path class="st0" d="M554.5,41.3c-2.4,0-4.2-0.8-5.3-2.4c-1.2-1.6-1.7-3.9-1.7-7.1V19h2.9v12.3c0,5,1.7,7.4,5.1,7.4
				c0.8,0,1.7-0.1,2.5-0.4c0.8-0.3,1.6-0.7,2.2-1.2c0.7-0.5,1.3-1.2,1.8-1.9c0.5-0.7,1-1.6,1.3-2.5V19h2.9v18.2c0,0.8,0.3,1.2,1,1.2
				v2.5c-0.3,0.1-0.6,0.1-0.8,0.1s-0.4,0-0.4,0c-0.7,0-1.2-0.3-1.6-0.7c-0.4-0.4-0.6-1.1-0.6-1.8v-2.5c-1,1.7-2.2,3-3.9,4
				C558.1,40.8,556.3,41.3,554.5,41.3z"/>
			<path class="st0" d="M590.4,40.9h-2.9V28.6c0-2.6-0.4-4.5-1.2-5.7c-0.8-1.2-2-1.8-3.5-1.8c-0.8,0-1.7,0.2-2.5,0.5
				s-1.6,0.7-2.3,1.3c-0.7,0.6-1.4,1.2-1.9,2c-0.6,0.8-1,1.6-1.2,2.5v13.4H572V19h2.6v5c0.9-1.6,2.2-2.9,3.8-3.9
				c1.7-1,3.5-1.5,5.4-1.5c1.2,0,2.2,0.2,3.1,0.7c0.8,0.4,1.5,1.1,2,1.9c0.5,0.8,0.9,1.8,1.1,3c0.2,1.2,0.3,2.5,0.3,3.9V40.9z"/>
			<path class="st0" d="M596,14.4v-4.2h2.9v4.2H596z M596,40.9V19h2.9v21.9H596z"/>
			<path class="st0" d="M614.9,39.8c-0.2,0.1-0.4,0.2-0.7,0.3c-0.3,0.1-0.7,0.3-1.1,0.4c-0.4,0.1-0.9,0.3-1.4,0.4
				c-0.5,0.1-1.1,0.2-1.7,0.2c-0.6,0-1.2-0.1-1.8-0.3s-1-0.4-1.5-0.8s-0.8-0.8-1-1.3c-0.3-0.5-0.4-1.1-0.4-1.8V21.2h-3V19h3v-7.4
				h2.9V19h5v2.3h-5v14.9c0.1,0.8,0.3,1.4,0.9,1.8c0.5,0.4,1.1,0.6,1.8,0.6c0.8,0,1.5-0.1,2.1-0.4c0.6-0.3,1-0.5,1.2-0.6L614.9,39.8
				z"/>
			<path class="st0" d="M619.7,47.6c0.2,0,0.4,0,0.7,0.1c0.2,0,0.4,0,0.6,0c0.5,0,0.9-0.1,1.2-0.2c0.3-0.1,0.6-0.4,0.9-0.9
				c0.3-0.5,0.6-1.2,0.9-2.1c0.3-0.9,0.8-2.1,1.5-3.6L615.9,19h2.9l8.1,19.2l7.5-19.2h2.7l-11.3,28.2c-0.3,0.8-0.8,1.5-1.5,2.1
				c-0.7,0.6-1.7,0.9-2.9,0.9c-0.3,0-0.5,0-0.8,0c-0.3,0-0.6,0-0.9-0.1V47.6z"/>
			<path class="st0" d="M280.9,53v29.8H278V68.9h-17.7v13.9h-2.9V53h2.9v13.3H278V53H280.9z"/>
			<path class="st0" d="M296.8,83.3c-1.6,0-3.1-0.3-4.4-0.9c-1.3-0.6-2.5-1.4-3.5-2.5c-1-1-1.7-2.3-2.3-3.6
				c-0.5-1.4-0.8-2.8-0.8-4.4c0-1.5,0.3-3,0.8-4.3s1.3-2.5,2.3-3.6c1-1,2.1-1.8,3.5-2.4c1.3-0.6,2.8-0.9,4.4-0.9
				c1.6,0,3.1,0.3,4.4,0.9c1.3,0.6,2.5,1.4,3.4,2.5c1,1,1.7,2.2,2.2,3.6c0.5,1.3,0.8,2.8,0.8,4.3c0,0.2,0,0.4,0,0.7
				c0,0.2,0,0.4,0,0.5h-18.7c0.1,1.2,0.4,2.3,0.8,3.3c0.5,1,1.1,1.9,1.8,2.6c0.7,0.7,1.6,1.3,2.5,1.7c0.9,0.4,1.9,0.6,3,0.6
				c0.7,0,1.4-0.1,2.1-0.3c0.7-0.2,1.3-0.5,1.9-0.8s1.1-0.7,1.6-1.2c0.5-0.5,0.8-1,1.1-1.6l2.5,0.7c-0.3,0.8-0.8,1.5-1.4,2.2
				c-0.6,0.7-1.3,1.2-2.1,1.7c-0.8,0.5-1.7,0.9-2.7,1.1C298.9,83.1,297.9,83.3,296.8,83.3z M304.9,70.8c-0.1-1.2-0.4-2.2-0.8-3.2
				s-1-1.8-1.8-2.5c-0.7-0.7-1.5-1.2-2.5-1.6c-0.9-0.4-1.9-0.6-3-0.6s-2.1,0.2-3,0.6c-1,0.4-1.8,0.9-2.5,1.6
				c-0.7,0.7-1.3,1.5-1.7,2.5c-0.4,1-0.7,2-0.8,3.2H304.9z"/>
			<path class="st0" d="M317,83.3c-1,0-2-0.2-2.9-0.5c-0.9-0.3-1.7-0.8-2.3-1.4c-0.7-0.6-1.2-1.3-1.5-2.2c-0.4-0.8-0.5-1.7-0.5-2.7
				c0-1,0.2-1.8,0.7-2.6c0.4-0.8,1.1-1.5,1.9-2.1c0.8-0.6,1.8-1,2.9-1.4c1.1-0.3,2.4-0.5,3.7-0.5c1.1,0,2.3,0.1,3.4,0.3
				c1.1,0.2,2.2,0.5,3.1,0.8v-2c0-1.9-0.5-3.5-1.6-4.6s-2.6-1.7-4.5-1.7c-1.1,0-2.3,0.2-3.4,0.7c-1.2,0.4-2.4,1.1-3.6,1.9l-1-1.9
				c2.8-1.9,5.6-2.9,8.2-2.9c2.7,0,4.9,0.8,6.5,2.3c1.6,1.5,2.4,3.7,2.4,6.4v9.9c0,0.8,0.3,1.2,1,1.2v2.5c-0.5,0.1-0.8,0.1-1.1,0.1
				c-0.7,0-1.3-0.2-1.7-0.5c-0.4-0.4-0.6-0.9-0.7-1.5l-0.1-1.7c-1,1.3-2.3,2.3-3.8,3C320.4,82.9,318.8,83.3,317,83.3z M317.7,81.1
				c1.5,0,2.8-0.3,4.1-0.8c1.2-0.6,2.2-1.3,2.8-2.2c0.3-0.3,0.4-0.5,0.6-0.8s0.2-0.6,0.2-0.8v-3.6c-1-0.4-1.9-0.6-3-0.8
				c-1-0.2-2.1-0.3-3.1-0.3c-2,0-3.7,0.4-4.9,1.3c-1.3,0.8-1.9,1.9-1.9,3.3c0,0.7,0.1,1.3,0.4,1.9c0.3,0.6,0.6,1.1,1.1,1.5
				c0.5,0.4,1,0.8,1.7,1S317,81.1,317.7,81.1z"/>
			<path class="st0" d="M333.9,52.2h2.9v25.7c0,0.8,0.2,1.4,0.7,1.9s1.1,0.7,1.9,0.7c0.3,0,0.7,0,1.1-0.1s0.8-0.2,1.2-0.3l0.5,2.3
				c-0.5,0.2-1.2,0.4-2,0.5s-1.4,0.2-2,0.2c-1.3,0-2.4-0.4-3.1-1.1s-1.1-1.8-1.1-3.1V52.2z"/>
			<path class="st0" d="M354.6,81.8c-0.2,0.1-0.4,0.2-0.7,0.3c-0.3,0.1-0.7,0.3-1.1,0.4c-0.4,0.1-0.9,0.3-1.4,0.4
				c-0.5,0.1-1.1,0.2-1.7,0.2c-0.6,0-1.2-0.1-1.8-0.3s-1-0.4-1.5-0.8c-0.4-0.4-0.8-0.8-1-1.3c-0.3-0.5-0.4-1.1-0.4-1.8V63.2h-3V61h3
				v-7.4h2.9V61h5v2.3h-5v14.9c0.1,0.8,0.3,1.4,0.9,1.8c0.5,0.4,1.1,0.6,1.8,0.6c0.8,0,1.5-0.1,2.1-0.4c0.6-0.3,1-0.5,1.2-0.6
				L354.6,81.8z"/>
			<path class="st0" d="M376.1,82.8h-2.9V70.6c0-2.5-0.4-4.4-1.3-5.6c-0.9-1.2-2.1-1.8-3.8-1.8c-0.8,0-1.6,0.2-2.4,0.5
				c-0.8,0.3-1.5,0.8-2.2,1.3c-0.7,0.6-1.3,1.2-1.8,2c-0.5,0.8-0.9,1.6-1.2,2.5v13.4h-2.9V52.2h2.9v13.7c0.9-1.7,2.1-3,3.6-3.9
				c1.5-1,3.2-1.4,5-1.4c1.3,0,2.3,0.2,3.2,0.7s1.6,1.1,2.1,1.9c0.6,0.8,1,1.8,1.2,3s0.4,2.4,0.4,3.8V82.8z"/>
			<path class="st0" d="M391.5,67.7c0-1.8,0.3-3.6,0.9-5.4s1.5-3.4,2.8-4.8c1.2-1.4,2.7-2.5,4.5-3.4s3.8-1.3,6-1.3
				c2.7,0,4.9,0.6,6.8,1.8c1.9,1.2,3.3,2.8,4.2,4.7l-2.3,1.4c-0.5-1-1.1-1.8-1.7-2.5c-0.7-0.7-1.4-1.2-2.2-1.6
				c-0.8-0.4-1.6-0.7-2.4-0.9c-0.8-0.2-1.7-0.3-2.5-0.3c-1.8,0-3.4,0.4-4.7,1.1c-1.4,0.7-2.5,1.7-3.5,2.9c-0.9,1.2-1.6,2.5-2.1,4
				c-0.5,1.5-0.7,3-0.7,4.5c0,1.7,0.3,3.2,0.9,4.7c0.6,1.5,1.4,2.8,2.4,4c1,1.2,2.2,2.1,3.5,2.8c1.4,0.7,2.8,1,4.4,1
				c0.8,0,1.7-0.1,2.6-0.3s1.7-0.5,2.6-1c0.8-0.5,1.6-1,2.3-1.7s1.3-1.5,1.8-2.5l2.4,1.3c-0.5,1.1-1.1,2.1-2,3
				c-0.9,0.9-1.8,1.6-2.9,2.2s-2.2,1-3.4,1.3c-1.2,0.3-2.4,0.5-3.5,0.5c-2,0-3.9-0.4-5.6-1.3c-1.7-0.9-3.2-2.1-4.4-3.5
				c-1.2-1.4-2.2-3.1-2.9-4.9C391.8,71.5,391.5,69.6,391.5,67.7z"/>
			<path class="st0" d="M430.7,83.3c-1.6,0-3.1-0.3-4.4-0.9c-1.3-0.6-2.5-1.4-3.5-2.5c-1-1-1.7-2.3-2.3-3.6
				c-0.5-1.4-0.8-2.8-0.8-4.4c0-1.5,0.3-3,0.8-4.3s1.3-2.5,2.3-3.6c1-1,2.1-1.8,3.5-2.4c1.3-0.6,2.8-0.9,4.4-0.9
				c1.6,0,3.1,0.3,4.4,0.9c1.3,0.6,2.5,1.4,3.4,2.5c1,1,1.7,2.2,2.2,3.6c0.5,1.3,0.8,2.8,0.8,4.3c0,0.2,0,0.4,0,0.7
				c0,0.2,0,0.4,0,0.5h-18.7c0.1,1.2,0.4,2.3,0.8,3.3c0.5,1,1.1,1.9,1.8,2.6c0.7,0.7,1.6,1.3,2.5,1.7c0.9,0.4,1.9,0.6,3,0.6
				c0.7,0,1.4-0.1,2.1-0.3c0.7-0.2,1.3-0.5,1.9-0.8s1.1-0.7,1.6-1.2c0.5-0.5,0.8-1,1.1-1.6l2.5,0.7c-0.3,0.8-0.8,1.5-1.4,2.2
				c-0.6,0.7-1.3,1.2-2.1,1.7c-0.8,0.5-1.7,0.9-2.7,1.1C432.8,83.1,431.8,83.3,430.7,83.3z M438.8,70.8c-0.1-1.2-0.4-2.2-0.8-3.2
				s-1-1.8-1.8-2.5c-0.7-0.7-1.5-1.2-2.5-1.6c-0.9-0.4-1.9-0.6-3-0.6s-2.1,0.2-3,0.6c-1,0.4-1.8,0.9-2.5,1.6
				c-0.7,0.7-1.3,1.5-1.7,2.5c-0.4,1-0.7,2-0.8,3.2H438.8z"/>
			<path class="st0" d="M463.9,82.8h-2.9V70.6c0-2.6-0.4-4.5-1.2-5.7c-0.8-1.2-2-1.8-3.5-1.8c-0.8,0-1.7,0.2-2.5,0.5
				c-0.8,0.3-1.6,0.7-2.3,1.3c-0.7,0.6-1.4,1.2-1.9,2s-1,1.6-1.2,2.5v13.4h-2.9V61h2.6v5c0.9-1.6,2.2-2.9,3.8-3.9
				c1.7-1,3.5-1.5,5.4-1.5c1.2,0,2.2,0.2,3.1,0.7c0.8,0.4,1.5,1.1,2,1.9c0.5,0.8,0.9,1.8,1.1,3c0.2,1.2,0.3,2.5,0.3,3.9V82.8z"/>
			<path class="st0" d="M479.5,81.8c-0.2,0.1-0.4,0.2-0.7,0.3c-0.3,0.1-0.7,0.3-1.1,0.4c-0.4,0.1-0.9,0.3-1.4,0.4
				c-0.5,0.1-1.1,0.2-1.7,0.2c-0.6,0-1.2-0.1-1.8-0.3s-1-0.4-1.5-0.8c-0.4-0.4-0.8-0.8-1-1.3c-0.3-0.5-0.4-1.1-0.4-1.8V63.2h-3V61h3
				v-7.4h2.9V61h5v2.3h-5v14.9c0.1,0.8,0.3,1.4,0.9,1.8c0.5,0.4,1.1,0.6,1.8,0.6c0.8,0,1.5-0.1,2.1-0.4c0.6-0.3,1-0.5,1.2-0.6
				L479.5,81.8z"/>
			<path class="st0" d="M491.3,83.3c-1.6,0-3.1-0.3-4.4-0.9c-1.3-0.6-2.5-1.4-3.5-2.5c-1-1-1.7-2.3-2.3-3.6
				c-0.5-1.4-0.8-2.8-0.8-4.4c0-1.5,0.3-3,0.8-4.3s1.3-2.5,2.3-3.6c1-1,2.1-1.8,3.5-2.4c1.3-0.6,2.8-0.9,4.4-0.9
				c1.6,0,3.1,0.3,4.4,0.9c1.3,0.6,2.5,1.4,3.4,2.5c1,1,1.7,2.2,2.2,3.6c0.5,1.3,0.8,2.8,0.8,4.3c0,0.2,0,0.4,0,0.7
				c0,0.2,0,0.4,0,0.5h-18.7c0.1,1.2,0.4,2.3,0.8,3.3c0.5,1,1.1,1.9,1.8,2.6c0.7,0.7,1.6,1.3,2.5,1.7c0.9,0.4,1.9,0.6,3,0.6
				c0.7,0,1.4-0.1,2.1-0.3c0.7-0.2,1.3-0.5,1.9-0.8s1.1-0.7,1.6-1.2c0.5-0.5,0.8-1,1.1-1.6l2.5,0.7c-0.3,0.8-0.8,1.5-1.4,2.2
				c-0.6,0.7-1.3,1.2-2.1,1.7c-0.8,0.5-1.7,0.9-2.7,1.1C493.3,83.1,492.3,83.3,491.3,83.3z M499.3,70.8c-0.1-1.2-0.4-2.2-0.8-3.2
				s-1-1.8-1.8-2.5c-0.7-0.7-1.5-1.2-2.5-1.6c-0.9-0.4-1.9-0.6-3-0.6s-2.1,0.2-3,0.6c-1,0.4-1.8,0.9-2.5,1.6
				c-0.7,0.7-1.3,1.5-1.7,2.5c-0.4,1-0.7,2-0.8,3.2H499.3z"/>
			<path class="st0" d="M517,63.5c-1.9,0.1-3.6,0.6-5,1.6c-1.4,1-2.4,2.4-3,4.2v13.6h-2.9V61h2.7v5.2c0.8-1.7,1.9-3,3.3-3.9
				c1.4-1,2.8-1.4,4.4-1.4c0.2,0,0.4,0,0.5,0V63.5z"/>
		</g>
	</g>
</g>
</svg>
